<?xml version="1.0" encoding="utf-8"?>
<!-- Generator: Adobe Illustrator 22.1.0, SVG Export Plug-In . SVG Version: 6.00 Build 0)  -->
<svg version="1.1" id="图层_1" xmlns="http://www.w3.org/2000/svg" xmlns:xlink="http://www.w3.org/1999/xlink" x="0px" y="0px"
	 viewBox="0 0 166 29" style="enable-background:new 0 0 166 29;" xml:space="preserve">
<g>
	<g>
		<defs>
			<path id="SVGID_1_" d="M17.9,4.3h-6.2l-3.8,18H3.4l3.8-18H0.9l0.8-3.6h17L17.9,4.3L17.9,4.3z M32.1,15.7H21.5c0,0.2,0,0.3,0,0.4
				c0,1,0.3,1.9,0.9,2.5c0.6,0.6,1.3,1,2.2,1c1.4,0,2.5-0.7,3.3-2.2l3.8,0.6c-0.7,1.5-1.7,2.7-3,3.4c-1.2,0.8-2.6,1.1-4.1,1.1
				c-2.1,0-3.8-0.7-5.1-2c-1.3-1.3-2-3.1-2-5.3c0-2.1,0.6-4,1.8-5.7c1.6-2.3,3.9-3.4,6.9-3.4c1.9,0,3.4,0.6,4.6,1.8
				c1.1,1.2,1.7,2.8,1.7,5C32.4,14,32.3,14.9,32.1,15.7L32.1,15.7z M27.8,10.1c-0.5-0.6-1.2-0.9-2.1-0.9c-0.9,0-1.7,0.3-2.3,1
				c-0.7,0.7-1.2,1.6-1.4,2.9h6.6c0-0.2,0-0.3,0-0.4C28.6,11.6,28.3,10.7,27.8,10.1L27.8,10.1z M49.8,13.4L48,22.3h-4.2l1.9-8.9
				C45.9,12,46,11.3,46,11c0-0.5-0.2-1-0.5-1.3c-0.3-0.3-0.8-0.5-1.3-0.5c-0.6,0-1.3,0.3-2.1,0.8c-0.8,0.5-1.4,1.2-1.8,2.1
				c-0.3,0.6-0.7,1.9-1.1,3.7L38,22.3h-4.2L37,6.6h4l-0.4,2c1-0.9,1.9-1.5,2.8-1.8c0.9-0.4,1.8-0.6,2.7-0.6c1.3,0,2.3,0.4,3,1.1
				c0.7,0.7,1.1,1.7,1.1,2.9C50.3,10.8,50.1,11.9,49.8,13.4L49.8,13.4z M56.3,22.3h-4.2l4.5-21.6h4.2L56.3,22.3L56.3,22.3z
				 M74.9,19.9c-1.6,1.8-3.8,2.8-6.5,2.8c-1.5,0-2.8-0.3-3.9-0.9c-1.1-0.6-2-1.4-2.5-2.5c-0.6-1.1-0.8-2.2-0.8-3.5
				c0-2.9,0.8-5.2,2.5-6.9c1.6-1.7,3.8-2.6,6.4-2.6c2.3,0,4.1,0.6,5.4,1.9c1.3,1.3,1.9,3,1.9,5.1C77.3,15.8,76.5,18,74.9,19.9
				L74.9,19.9z M72.3,10.3c-0.6-0.6-1.3-0.9-2.3-0.9c-0.9,0-1.7,0.3-2.4,0.8c-0.7,0.6-1.3,1.4-1.6,2.5c-0.4,1.1-0.6,2.1-0.6,3
				c0,1.1,0.3,2,0.9,2.7c0.6,0.7,1.4,1,2.3,1c1.2,0,2.1-0.5,2.9-1.5c1.1-1.4,1.7-3.1,1.7-5.1C73.1,11.7,72.9,10.9,72.3,10.3
				L72.3,10.3z M95.1,13.4l-1.8,8.9H89l1.9-8.9c0.3-1.3,0.4-2.1,0.4-2.4c0-0.5-0.2-1-0.5-1.3c-0.3-0.3-0.8-0.5-1.3-0.5
				c-0.6,0-1.3,0.3-2.1,0.8c-0.8,0.5-1.4,1.2-1.8,2.1c-0.3,0.6-0.7,1.9-1.1,3.7l-1.3,6.4H79l3.3-15.6h4l-0.4,2
				c1-0.9,1.9-1.5,2.8-1.8c0.9-0.4,1.8-0.6,2.7-0.6c1.3,0,2.3,0.4,3,1.1c0.7,0.7,1.1,1.7,1.1,2.9C95.5,10.8,95.4,11.9,95.1,13.4
				L95.1,13.4z M112.2,19.7c-0.4,2.1-0.8,3.6-1.1,4.5c-0.3,0.9-0.7,1.6-1,2.1c-0.4,0.5-0.9,1-1.5,1.3c-0.6,0.4-1.3,0.6-2.1,0.8
				c-0.8,0.2-1.7,0.2-2.7,0.2c-2.2,0-3.9-0.4-5-1.1c-1.1-0.8-1.7-2-1.7-3.8c0-0.2,0-0.4,0-0.6l4.5,0.6c0,0.5,0.1,0.8,0.2,1
				c0.1,0.2,0.4,0.4,0.7,0.6c0.3,0.2,0.8,0.2,1.3,0.2c0.9,0,1.6-0.2,2.2-0.5c0.4-0.3,0.7-0.7,1-1.3c0.2-0.4,0.4-1.2,0.6-2.5l0.1-0.7
				c-1.5,1.2-3,1.8-4.5,1.8c-1.5,0-2.8-0.5-3.8-1.6C98.5,19.6,98,18,98,16c0-1.8,0.3-3.5,1-5.1c0.7-1.5,1.6-2.7,2.8-3.5
				c1.2-0.8,2.4-1.2,3.7-1.2c1,0,2,0.3,2.9,0.8s1.5,1.3,2,2.3l0.6-2.8h4L112.2,19.7L112.2,19.7z M108.3,10.3c-0.6-0.7-1.3-1-2.1-1
				c-0.8,0-1.5,0.3-2.1,0.9c-0.6,0.6-1.2,1.5-1.6,2.8c-0.3,1-0.5,1.8-0.5,2.6c0,1.2,0.3,2.1,0.8,2.7c0.5,0.6,1.2,0.9,2,0.9
				c0.7,0,1.5-0.3,2.1-0.8c0.7-0.6,1.2-1.4,1.6-2.4c0.4-1,0.6-2,0.6-3C109.2,11.9,108.9,11,108.3,10.3L108.3,10.3z"/>
		</defs>
		<clipPath id="SVGID_2_">
			<use xlink:href="#SVGID_1_"  style="overflow:visible;"/>
		</clipPath>
		<image style="overflow:visible;clip-path:url(#SVGID_2_);" width="166" height="29" xlink:href="DCDF624C.jpg" >
		</image>
	</g>
	<g>
		<defs>
			<path id="SVGID_3_" d="M134,6.6c-0.3,0.7-0.6,1.3-1,1.8h8.1l-0.2,1.4h-4.4c0.9,1.5,2.4,2.6,4.4,3.2c-0.5,0.5-1,1-1.4,1.5
				c-1.2-0.5-2.2-1.2-3-2l-1.2,3.6h3.3c-0.5,2-0.9,3.6-1.1,4.6c-0.4,1.9-1.6,2.8-3.4,2.8c-0.9,0-1.9,0-3-0.1c0-0.5,0-1.1,0-1.7
				c1.1,0.1,2.1,0.2,3.1,0.2c1,0,1.6-0.5,1.8-1.5c0.2-0.9,0.5-1.9,0.8-3.1h-9.5l1.3-3.4h1.6l-0.8,2.1h4.5l0.9-2.7h-6l0.1-0.5
				c-0.8,0.6-1.6,1.2-2.6,1.7c-0.3-0.5-0.6-0.9-0.9-1.3c2-1.1,3.6-2.3,4.8-3.5h-3.4l0.2-1.4h4.4c0.4-0.5,0.8-1.1,1.1-1.8h-4.5
				l0.2-1.4h4.9c0.5-1.3,1-2.8,1.3-4.5h1.7c-0.4,1.7-0.8,3.1-1.3,4.5h6.6l-0.2,1.4H134L134,6.6z M132,9.7c-0.6,0.8-1.4,1.5-2.3,2.3
				h6.5c-0.6-0.7-1-1.4-1.4-2.3H132L132,9.7z M136.8,4.2c1-1,1.8-1.9,2.6-2.7l1.3,1c-1,1-1.9,1.9-2.7,2.7L136.8,4.2L136.8,4.2z
				 M128.8,2.4l1.5-0.9c0.5,0.8,1.1,1.7,1.6,2.7l-1.6,0.9C129.8,4.1,129.3,3.2,128.8,2.4L128.8,2.4z M134.7,20.3h-10.1l0.2-1.4H135
				L134.7,20.3L134.7,20.3z M121,23.5c-1,0-1.7,0-2.2-0.1c0-0.5,0-1,0-1.6c0.8,0.1,1.5,0.2,2,0.2c0.6,0,1-0.3,1.1-1l1-5.4h-2.8
				l-0.1,0.4c-0.6,3.5-1.7,6.1-3.3,7.9c-0.3-0.5-0.6-0.9-1.1-1.3c1.3-1.6,2.2-3.8,2.8-6.8l2.4-13.5h6l-3.4,19.1
				C123.3,22.8,122.5,23.5,121,23.5L121,23.5z M125.1,3.7h-2.8l-0.8,4.5h2.8L125.1,3.7L125.1,3.7z M121.2,9.7l-0.8,4.5h2.8l0.8-4.5
				H121.2L121.2,9.7z M157.4,2.1l1.4-1.3c1.3,0.9,2.5,1.9,3.4,2.9l-1.6,1.5C159.7,4.2,158.7,3.1,157.4,2.1L157.4,2.1z M165.7,5.5
				l-0.3,1.8h-9.1l-1.4,8.1c2.8-1.9,5.1-4.1,7.1-6.5l1.5,1.1c-2.5,3-5.5,5.6-9,7.9l-0.2,1.4c-0.2,1.4,0.2,2.1,1.4,2.1h2.8
				c1.4,0,2.3-0.6,2.6-1.7c0.3-0.8,0.6-2,1.1-3.5c0.6,0.3,1.2,0.5,1.9,0.8c-0.5,1.6-1,2.9-1.3,3.7c-0.7,1.7-2.1,2.6-4.2,2.6h-3.7
				c-2.2,0-3.1-1.1-2.7-3.4l0.1-0.5c-1.4,0.8-2.9,1.6-4.5,2.4c-0.2-0.6-0.5-1.2-0.9-1.7c2.1-0.9,4-2,5.8-3.1l1.7-9.6h-2.6
				c-0.9,3.6-1.9,6.4-3,8.5c-1.8,3.4-4.4,6.1-7.9,8.3c-0.3-0.5-0.7-1.1-1.2-1.7c3.3-1.9,5.8-4.4,7.3-7.4c1-1.9,1.9-4.4,2.8-7.7h-6.9
				l0.3-1.8h7c0.3-1.4,0.6-3,0.9-4.6h2c-0.3,1.7-0.6,3.2-0.9,4.6H165.7L165.7,5.5z"/>
		</defs>
		<clipPath id="SVGID_4_">
			<use xlink:href="#SVGID_3_"  style="overflow:visible;"/>
		</clipPath>
		<image style="overflow:visible;clip-path:url(#SVGID_4_);" width="166" height="29" xlink:href="DCDF6254.jpg" >
		</image>
	</g>
</g>
</svg>
